<svg width="790" height="288" viewBox="0 0 790 288" fill="none" xmlns="http://www.w3.org/2000/svg">
<path d="M761.215 287.999H671.608V244.061H546.411V170.157L665.618 0.397913H761.22V167.363H790V244.063H761.22V287.998L761.215 287.999ZM214.806 287.999H125.199V244.061H0V170.157L119.221 0.397913H214.806V167.363H243.622V244.063H214.806V287.998V287.999ZM393.592 286.399C384.057 286.447 374.538 285.632 365.151 283.966C356.719 282.459 348.484 280.011 340.6 276.666C333.223 273.509 326.282 269.419 319.947 264.498C313.653 259.562 308.023 253.835 303.199 247.458C298.201 240.854 293.863 233.775 290.249 226.325C286.45 218.461 283.353 210.277 280.994 201.87C278.449 192.764 276.593 183.48 275.441 174.097C274.179 163.782 273.56 153.399 273.589 143.007C273.56 132.618 274.179 122.236 275.441 111.923C276.592 102.552 278.448 93.2801 280.994 84.1869C283.352 75.7998 286.449 67.6377 290.249 59.7961C293.862 52.372 298.2 45.3218 303.199 38.7479C308.028 32.403 313.658 26.7071 319.947 21.8013C326.287 16.9023 333.227 12.833 340.6 9.69244C348.486 6.36225 356.722 3.92437 365.151 2.42435C374.539 0.764749 384.058 -0.0463248 393.592 0.000980598C403.13 -0.0468102 412.653 0.767287 422.044 2.4333C430.477 3.94001 438.714 6.38869 446.599 9.73323C453.977 12.8902 460.919 16.9798 467.254 21.9018C473.547 26.8375 479.175 32.5647 483.999 38.9409C488.994 45.5394 493.332 52.6096 496.95 60.0508C500.744 67.891 503.838 76.0498 506.198 84.4327C508.739 93.4992 510.593 102.744 511.745 112.088C513.004 122.347 513.622 132.675 513.593 143.01C513.622 153.402 513.005 163.785 511.745 174.1C510.595 183.483 508.741 192.767 506.198 201.873C503.841 210.28 500.746 218.463 496.95 226.328C493.336 233.778 488.998 240.857 483.999 247.461C479.175 253.838 473.547 259.565 467.254 264.501C460.919 269.423 453.977 273.512 446.599 276.669C438.714 280.014 430.477 282.462 422.044 283.969C412.653 285.634 403.13 286.448 393.592 286.399V286.399Z" fill="#3C3C3C"/>
</svg>
